<mxfile host="65bd71144e">
    <diagram id="LVDC2nMzQZCMPkLOgk-l" name="oop-lab-6-layer-1">
        <mxGraphModel dx="998" dy="461" grid="1" gridSize="14" guides="1" tooltips="1" connect="1" arrows="1" fold="1" page="1" pageScale="1" pageWidth="1169" pageHeight="827" math="0" shadow="0">
            <root>
                <mxCell id="0"/>
                <mxCell id="1" parent="0"/>
            </root>
        </mxGraphModel>
    </diagram>
    <diagram id="PQTzEQ-NzFtTdZvB_gqV" name="oop-lab-6-layer-2">
        <mxGraphModel dx="998" dy="461" grid="1" gridSize="14" guides="1" tooltips="1" connect="1" arrows="1" fold="1" page="1" pageScale="1" pageWidth="1169" pageHeight="827" math="0" shadow="0">
            <root>
                <mxCell id="0"/>
                <mxCell id="1" parent="0"/>
            </root>
        </mxGraphModel>
    </diagram>
</mxfile>